<?xml version="1.0" encoding="UTF-8"?>
<!DOCTYPE svg PUBLIC "-//W3C//DTD SVG 1.1//EN" "http://www.w3.org/Graphics/SVG/1.1/DTD/svg11.dtd">
<!-- Creator: CorelDRAW X8 -->
<svg xmlns="http://www.w3.org/2000/svg" xml:space="preserve" width="117.368mm" height="25.9713mm" version="1.1" style="shape-rendering:geometricPrecision; text-rendering:geometricPrecision; image-rendering:optimizeQuality; fill-rule:evenodd; clip-rule:evenodd"
viewBox="0 0 10062 2226"
 xmlns:xlink="http://www.w3.org/1999/xlink">
 <defs>
  <style type="text/css">
   <![CDATA[
    .fil0 {fill:#707070}
   ]]>
  </style>
 </defs>
 <g id="Слой_x0020_1">
  <metadata id="CorelCorpID_0Corel-Layer"/>
  <path class="fil0" d="M3305 1221l-41 166 82 0 -41 -166zm-68 -154l136 0 159 475 -147 0 -17 -64 -127 0 -16 64 -148 0 160 -475z"/>
  <path class="fil0" d="M3855 1349l-80 0 0 77 80 0c13,0 23,-3 30,-10 7,-6 11,-15 11,-24 0,-11 -4,-21 -11,-30 -7,-9 -18,-13 -30,-13zm-11 -167l-69 0 0 77 57 0c16,0 28,-4 37,-12 9,-9 14,-19 14,-30 0,-10 -3,-18 -10,-25 -6,-6 -16,-10 -29,-10zm-206 360l0 -475 228 0c46,0 82,13 109,40 23,24 34,53 34,87 0,20 -4,38 -13,54 -9,16 -22,29 -39,37 23,8 41,23 54,45 14,22 20,46 20,72 0,38 -12,69 -36,95 -28,30 -68,45 -118,45l-239 0z"/>
  <polygon class="fil0" points="4283,1067 4348,1375 4423,1067 4586,1067 4586,1542 4445,1542 4445,1387 4456,1246 4391,1542 4305,1542 4240,1246 4251,1387 4251,1542 4121,1542 4121,1067 "/>
  <path class="fil0" d="M4915 1407l0 -208c0,-92 49,-141 122,-141 76,0 121,46 127,132l-30 0c-5,-71 -39,-104 -97,-104 -55,0 -92,36 -92,113l0 208c0,76 37,113 93,113 60,0 93,-35 100,-105l29 0c-6,86 -52,133 -129,133 -73,0 -123,-49 -123,-141z"/>
  <path class="fil0" d="M5608 1400l0 -193c0,-78 -37,-119 -101,-119 -63,0 -100,41 -100,119l0 193c0,77 37,118 100,118 64,0 101,-41 101,-118zm-232 0l0 -193c0,-95 50,-149 131,-149 82,0 132,54 132,149l0 193c0,93 -50,148 -132,148 -81,0 -131,-55 -131,-148z"/>
  <path class="fil0" d="M6127 1066l0 474 -32 0 -151 -325c-12,-26 -30,-68 -38,-89l-1 1c1,28 2,68 2,98l0 315 -31 0 0 -474 32 0 150 323c13,27 31,67 40,90l1 0c-1,-27 -3,-69 -3,-100l0 -313 31 0z"/>
  <path class="fil0" d="M6348 1424l31 0c4,60 38,94 92,94 59,0 91,-38 91,-91 0,-117 -208,-121 -208,-258 0,-64 48,-111 116,-111 69,0 114,49 118,121l-31 0c-4,-61 -37,-91 -86,-91 -52,0 -86,32 -86,81 0,116 208,118 208,258 0,64 -44,121 -121,121 -74,0 -120,-50 -124,-124z"/>
  <polygon class="fil0" points="7018,1095 6912,1095 6912,1540 6881,1540 6881,1095 6776,1095 6776,1066 7018,1066 "/>
  <path class="fil0" d="M7259 1318l76 0c60,0 95,-40 95,-114 0,-73 -35,-109 -102,-109l-69 0 0 223zm63 29l-63 0 0 193 -30 0 0 -474 99 0c87,0 133,49 133,137 0,82 -39,134 -106,142l115 195 -35 0 -113 -193z"/>
  <path class="fil0" d="M7680 1406l0 -340 31 0 0 340c0,75 37,111 92,111 56,0 93,-36 93,-111l0 -340 31 0 0 340c0,92 -50,140 -124,140 -73,0 -123,-48 -123,-140z"/>
  <path class="fil0" d="M8157 1407l0 -208c0,-92 49,-141 122,-141 76,0 121,46 127,132l-30 0c-5,-71 -39,-104 -97,-104 -55,0 -92,36 -92,113l0 208c0,76 37,113 93,113 60,0 93,-35 99,-105l30 0c-6,86 -52,133 -129,133 -73,0 -123,-49 -123,-141z"/>
  <polygon class="fil0" points="8833,1095 8726,1095 8726,1540 8696,1540 8696,1095 8591,1095 8591,1066 8833,1066 "/>
  <polygon class="fil0" points="9074,1066 9074,1540 9043,1540 9043,1066 "/>
  <path class="fil0" d="M9543 1400l0 -193c0,-78 -36,-119 -100,-119 -64,0 -100,41 -100,119l0 193c0,77 36,118 100,118 64,0 100,-41 100,-118zm-231 0l0 -193c0,-95 50,-149 131,-149 81,0 131,54 131,149l0 193c0,93 -50,148 -131,148 -81,0 -131,-55 -131,-148z"/>
  <path class="fil0" d="M10062 1066l0 474 -32 0 -152 -325c-11,-26 -29,-68 -37,-89l-2 1c2,28 2,68 2,98l0 315 -30 0 0 -474 32 0 150 323c13,27 30,67 40,90l1 0c-1,-27 -3,-69 -3,-100l0 -313 31 0z"/>
  <path class="fil0" d="M1645 1881l292 -899 181 555 -473 344zm111 -1456l181 556 -765 -556 -765 556 146 451 236 -727 765 -1 237 727 -618 450 472 0 -473 344 -946 -686 360 -1113 1169 -1 -584 -425 -1171 850 447 1376 1447 0 447 -1376 -585 -425z"/>
  <polygon class="fil0" points="553,1433 699,1881 1172,1881 "/>
 </g>
</svg>
