<?xml version="1.0" encoding="UTF-8"?>
<!DOCTYPE svg PUBLIC "-//W3C//DTD SVG 1.1//EN" "http://www.w3.org/Graphics/SVG/1.1/DTD/svg11.dtd">
<!-- Creator: CorelDRAW X8 -->
<svg xmlns="http://www.w3.org/2000/svg" xml:space="preserve" width="4.9575mm" height="2.8054mm" version="1.1" style="shape-rendering:geometricPrecision; text-rendering:geometricPrecision; image-rendering:optimizeQuality; fill-rule:evenodd; clip-rule:evenodd"
viewBox="0 0 14 8"
 xmlns:xlink="http://www.w3.org/1999/xlink">
 <defs>
  <style type="text/css">
   <![CDATA[
    .fil0 {fill:#707070}
   ]]>
  </style>
 </defs>
 <g id="Слой_x0020_1">
  <metadata id="CorelCorpID_0Corel-Layer"/>
  <path class="fil0" d="M12 5c1,1 1,1 2,2 0,0 0,0 0,0 1,1 0,1 0,1l-2 0c-1,0 -1,0 -1,0 -1,-1 -1,-1 -1,-1 0,0 0,-1 -1,-1 0,0 0,0 0,1 0,0 -1,0 -1,1 0,0 0,0 0,0 -1,0 -2,0 -3,0 -1,-1 -2,-2 -2,-2 -1,-2 -2,-3 -3,-5 0,-1 0,-1 0,-1 1,0 2,0 3,0 0,0 0,0 0,1 0,1 1,2 1,2 1,1 1,1 1,1 0,0 0,0 1,0 0,0 0,-1 0,-1 0,0 0,-1 0,-2 0,0 -1,0 -1,0 0,0 0,-1 0,-1 0,0 0,0 1,0l2 0c0,0 0,0 0,1l0 2c0,0 1,1 1,1 0,0 0,0 0,0 1,-1 1,-2 2,-2 0,-1 0,-1 0,-1 0,-1 0,-1 1,-1l2 0c0,0 0,0 0,0 0,0 1,1 0,1 0,0 0,1 0,1 -1,1 -1,2 -2,2 0,1 0,1 0,1z"/>
 </g>
</svg>
