<?xml version="1.0" encoding="UTF-8"?>
<!DOCTYPE svg PUBLIC "-//W3C//DTD SVG 1.1//EN" "http://www.w3.org/Graphics/SVG/1.1/DTD/svg11.dtd">
<!-- Creator: CorelDRAW X8 -->
<svg xmlns="http://www.w3.org/2000/svg" xml:space="preserve" width="56.8499mm" height="56.8499mm" version="1.1" style="shape-rendering:geometricPrecision; text-rendering:geometricPrecision; image-rendering:optimizeQuality; fill-rule:evenodd; clip-rule:evenodd"
viewBox="0 0 2403 2403"
 xmlns:xlink="http://www.w3.org/1999/xlink">
 <defs>
  <style type="text/css">
   <![CDATA[
    .fil0 {fill:#6D6D6D}
   ]]>
  </style>
 </defs>
 <g id="Слой_x0020_1">
  <metadata id="CorelCorpID_0Corel-Layer"/>
  <path class="fil0" d="M743 0l917 0c409,0 743,334 743,743l0 917c0,409 -334,743 -743,743l-917 0c-409,0 -743,-334 -743,-743l0 -917c0,-409 334,-743 743,-743zm1197 307c-40,0 -79,16 -107,45 -29,28 -45,67 -45,107 0,40 16,79 45,108 28,28 67,44 107,44 40,0 79,-16 108,-44 28,-29 44,-68 44,-108 0,-40 -16,-79 -44,-107 -29,-29 -68,-45 -108,-45zm-739 189c-389,0 -705,316 -705,705 0,390 316,706 705,706 390,0 706,-316 706,-706 0,-389 -316,-705 -706,-705zm0 1168c-255,0 -462,-207 -462,-463 0,-255 207,-462 462,-462 256,0 463,207 463,462 0,256 -207,463 -463,463z"/>
 </g>
</svg>
