<?xml version="1.0" encoding="UTF-8"?>
<!DOCTYPE svg PUBLIC "-//W3C//DTD SVG 1.1//EN" "http://www.w3.org/Graphics/SVG/1.1/DTD/svg11.dtd">
<!-- Creator: CorelDRAW X8 -->
<svg xmlns="http://www.w3.org/2000/svg" xml:space="preserve" width="7.9455mm" height="7.9455mm" version="1.1" style="shape-rendering:geometricPrecision; text-rendering:geometricPrecision; image-rendering:optimizeQuality; fill-rule:evenodd; clip-rule:evenodd"
viewBox="0 0 47 47"
 xmlns:xlink="http://www.w3.org/1999/xlink">
 <defs>
  <style type="text/css">
   <![CDATA[
    .fil0 {fill:#707070}
   ]]>
  </style>
 </defs>
 <g id="Слой_x0020_1">
  <metadata id="CorelCorpID_0Corel-Layer"/>
  <path class="fil0" d="M15 0l17 0c8,0 15,7 15,15l0 17c0,8 -7,15 -15,15l-17 0c-8,0 -15,-7 -15,-15l0 -17c0,-8 7,-15 15,-15zm23 6c-1,0 -2,0 -2,1 -1,0 -1,1 -1,2 0,1 0,2 1,2 0,1 1,1 2,1 1,0 1,0 2,-1 1,0 1,-1 1,-2 0,-1 0,-2 -1,-2 -1,-1 -1,-1 -2,-1zm-15 4c-7,0 -13,6 -13,13 0,8 6,14 13,14 8,0 14,-6 14,-14 0,-7 -6,-13 -14,-13zm0 23c-5,0 -9,-5 -9,-10 0,-5 4,-9 9,-9 5,0 10,4 10,9 0,5 -5,10 -10,10z"/>
 </g>
</svg>
